<?xml version="1.0" encoding="UTF-8"?><svg id="Layer_2" xmlns="http://www.w3.org/2000/svg" viewBox="0 0 432.77 428.07"><g id="Layer_1-2"><path d="m310.61,176.42l53.08-132.76c-1.87-2.76-2.51-3.71-4.38-6.47h-23.77l-4.39,2.99-40.85,103.44v3.46s11.54,29.32,11.54,29.32c4.27.01,4.5.01,8.77.02Z"/><path d="m273.44,186.29h0l-41.79-106.13-17.1-42.74v-.24l-16.86,42.97-.47,1.19-24.49,62.21v3.46s11.54,29.3,11.54,29.3c4.28,0,4.5.01,8.78.02l17.14-42.94c4.26,0,4.5,0,8.77,0l50.11,125.06c4.26,0,4.5,0,8.76,0l11.41-28.54v-3.48s-15.79-40.13-15.79-40.13Z"/><path d="m154.57,182.9L98.2,40.17l-4.39-2.99h-23.77l-4.38,6.47,85.86,214.76c4.26,0,4.5,0,8.77,0l11.39-28.55v-3.48s-17.11-43.48-17.11-43.48Z"/><path d="m216.39,359.93l20.33,49.73h-40.67l20.33-49.73m0-48.65l-17.04,41.69-20.33,49.73-10.38,25.38h95.51l-10.38-25.38-20.33-49.73-17.04-41.69h0Z"/><path d="m405.35,18.41l-135.02,330.26-53.94-131.94-53.94,131.94L27.42,18.41h109.97l18.75,45.85,18.75-45.85h80.78l18.75,45.85,18.75-45.85h112.2M432.77,0h-151.99l-4.68,11.44-1.7,4.17-1.7-4.17-4.68-11.44h-105.5l-4.68,11.44-1.7,4.17-1.7-4.17-4.68-11.44H0l10.38,25.38,135.02,330.26,17.04,41.69,17.04-41.69,36.9-90.25,36.9,90.25,17.04,41.69,17.04-41.69L422.4,25.38l10.38-25.38h0Z"/></g></svg>