<?xml version="1.0" encoding="UTF-8"?><svg id="Layer_2" xmlns="http://www.w3.org/2000/svg" viewBox="0 0 465.12 465.12"><defs><style>.cls-1{fill:#231f20;}</style></defs><g id="Layer_1-2"><path class="cls-1" d="m375.17,13c42.5,0,76.94,34.45,76.94,76.94h0c0,4.11-3.33,7.45-7.45,7.45h-23.69c-4.11,0-7.45,3.33-7.45,7.45v72.11c0,4.11,3.33,7.45,7.45,7.45h23.69c4.11,0,7.45,3.33,7.45,7.45v81.43c0,4.11-3.33,7.45-7.45,7.45h-23.69c-4.11,0-7.45,3.33-7.45,7.45v72.11c0,4.11,3.33,7.45,7.45,7.45h23.69c4.11,0,7.45,3.33,7.45,7.45h0c0,42.5-34.45,76.94-76.94,76.94h0c-4.11,0-7.45-3.33-7.45-7.45v-23.69c0-4.11-3.33-7.45-7.45-7.45h-72.11c-4.11,0-7.45,3.33-7.45,7.45v23.69c0,4.11-3.33,7.45-7.45,7.45h-81.43c-4.11,0-7.45-3.33-7.45-7.45v-23.69c0-4.11-3.33-7.45-7.45-7.45h-72.11c-4.11,0-7.45,3.33-7.45,7.45v23.69c0,4.11-3.33,7.45-7.45,7.45h0c-42.49,0-76.94-34.45-76.94-76.94h0c0-4.11,3.33-7.45,7.45-7.45h23.69c4.11,0,7.45-3.33,7.45-7.45v-72.11c0-4.11-3.33-7.45-7.45-7.45h-23.69c-4.11,0-7.45-3.33-7.45-7.45v-81.43c0-4.11,3.33-7.45,7.45-7.45h23.69c4.11,0,7.45-3.33,7.45-7.45v-72.11c0-4.11-3.33-7.45-7.45-7.45h-23.69c-4.11,0-7.45-3.33-7.45-7.45h0C13,47.45,47.45,13,89.94,13h0c4.11,0,7.45,3.33,7.45,7.45v23.69c0,4.11,3.33,7.45,7.45,7.45h72.11c4.11,0,7.45-3.33,7.45-7.45v-23.69c0-4.11,3.33-7.45,7.45-7.45h81.43c4.11,0,7.45,3.33,7.45,7.45v23.69c0,4.11,3.33,7.45,7.45,7.45h72.11c4.11,0,7.45-3.33,7.45-7.45v-23.69c0-4.11,3.33-7.45,7.45-7.45h0m0-13h0c-11.27,0-20.45,9.17-20.45,20.45v18.14h-61.01s0-18.14,0-18.14c0-11.27-9.17-20.45-20.45-20.45h-81.43c-11.27,0-20.45,9.17-20.45,20.45v18.14h-61.01v-18.14c0-11.27-9.17-20.45-20.45-20.45C40.35,0,0,40.35,0,89.94c0,11.28,9.17,20.45,20.45,20.45h18.14v61.01h-18.14c-11.27,0-20.45,9.17-20.45,20.45v81.43c0,11.27,9.17,20.45,20.45,20.45h18.14v61.01h-18.14c-11.27,0-20.45,9.17-20.45,20.45,0,49.6,40.35,89.94,89.94,89.94,11.27,0,20.45-9.17,20.45-20.45v-18.14h61.01v18.14c0,11.27,9.17,20.45,20.45,20.45h81.43c11.27,0,20.45-9.17,20.45-20.45v-18.14h61.01v18.14c0,11.27,9.17,20.45,20.45,20.45,49.6,0,89.95-40.35,89.95-89.94,0-11.27-9.17-20.45-20.45-20.45h-18.14v-61.01h18.14c11.27,0,20.45-9.17,20.45-20.45v-81.43c0-11.27-9.17-20.45-20.45-20.45h-18.14v-61.01h18.14c11.27,0,20.45-9.17,20.45-20.45,0-49.6-40.35-89.94-89.94-89.94h0Z"/><path class="cls-1" d="m271.72,22v22.14c0,9.07,7.38,16.45,16.45,16.45h72.11c9.07,0,16.45-7.38,16.45-16.45v-22.12c36.23.82,65.56,30.14,66.38,66.37h-22.12c-9.07,0-16.45,7.38-16.45,16.45v72.11c0,9.07,7.38,16.45,16.45,16.45h22.14v78.32h-22.14c-9.07,0-16.45,7.38-16.45,16.45v72.11c0,9.07,7.38,16.45,16.45,16.45h22.12c-.82,36.23-30.14,65.56-66.38,66.37v-22.12c0-9.07-7.38-16.45-16.45-16.45h-72.11c-9.07,0-16.45,7.38-16.45,16.45v22.14h-78.32v-22.14c0-9.07-7.38-16.45-16.45-16.45h-72.11c-9.07,0-16.45,7.38-16.45,16.45v22.12c-36.23-.82-65.56-30.14-66.37-66.37h22.12c9.07,0,16.45-7.38,16.45-16.45v-72.11c0-9.07-7.38-16.45-16.45-16.45h-22.14v-78.32h22.14c9.07,0,16.45-7.38,16.45-16.45v-72.11c0-9.07-7.38-16.45-16.45-16.45h-22.12c.82-36.23,30.14-65.56,66.37-66.37v22.12c0,9.07,7.38,16.45,16.45,16.45h72.11c9.07,0,16.45-7.38,16.45-16.45v-22.14h78.32m103.45-4c-1.35,0-2.45,1.1-2.45,2.45v23.69c0,6.86-5.58,12.45-12.45,12.45h-72.11c-6.86,0-12.45-5.58-12.45-12.45v-23.69c0-1.35-1.1-2.45-2.45-2.45h-81.43c-1.35,0-2.45,1.1-2.45,2.45v23.69c0,6.86-5.58,12.45-12.45,12.45h-72.11c-6.86,0-12.45-5.58-12.45-12.45v-23.69c0-1.35-1.1-2.45-2.45-2.45-39.67,0-71.94,32.27-71.94,71.94,0,1.35,1.1,2.45,2.45,2.45h23.69c6.86,0,12.45,5.58,12.45,12.45v72.11c0,6.86-5.58,12.45-12.45,12.45h-23.69c-1.35,0-2.45,1.1-2.45,2.45v81.43c0,1.35,1.1,2.45,2.45,2.45h23.69c6.86,0,12.45,5.58,12.45,12.45v72.11c0,6.86-5.58,12.45-12.45,12.45h-23.69c-1.35,0-2.45,1.1-2.45,2.45,0,39.67,32.27,71.94,71.94,71.94,1.35,0,2.45-1.1,2.45-2.45v-23.69c0-6.86,5.58-12.45,12.45-12.45h72.11c6.86,0,12.45,5.58,12.45,12.45v23.69c0,1.35,1.1,2.45,2.45,2.45h81.43c1.35,0,2.45-1.1,2.45-2.45v-23.69c0-6.86,5.58-12.45,12.45-12.45h72.11c6.86,0,12.45,5.58,12.45,12.45v23.69c0,1.35,1.1,2.45,2.45,2.45h0c39.67,0,71.94-32.27,71.94-71.94,0-1.35-1.1-2.45-2.45-2.45h-23.69c-6.86,0-12.45-5.58-12.45-12.45v-72.11c0-6.86,5.58-12.45,12.45-12.45h23.69c1.35,0,2.45-1.1,2.45-2.45v-81.43c0-1.35-1.1-2.45-2.45-2.45h-23.69c-6.86,0-12.45-5.58-12.45-12.45v-72.11c0-6.86,5.58-12.45,12.45-12.45h23.69c1.35,0,2.45-1.1,2.45-2.45,0-39.67-32.28-71.94-71.95-71.94h0Z"/><path class="cls-1" d="m329.84,258.41l53.82-134.62c-1.9-2.8-2.55-3.76-4.44-6.56h-24.1l-4.45,3.03-41.42,104.89v3.51s11.7,29.73,11.7,29.73c4.33.01,4.56.01,8.9.02Z"/><path class="cls-1" d="m292.15,268.42h0l-42.37-107.62-17.34-43.34v-.24l-17.09,43.58-.48,1.2-24.83,63.08v3.51s11.7,29.71,11.7,29.71l8.9.02,17.38-43.54h8.89s50.81,126.81,50.81,126.81c4.32,0,4.57,0,8.89,0l11.57-28.94v-3.53s-16.01-40.69-16.01-40.69Z"/><path class="cls-1" d="m171.61,264.98l-57.16-144.73-4.45-3.03h-24.1l-4.44,6.56,87.07,217.77c4.32,0,4.57,0,8.89,0l11.55-28.95v-3.53s-17.35-44.09-17.35-44.09Z"/></g></svg>