<?xml version="1.0" encoding="UTF-8"?><svg id="Layer_2" xmlns="http://www.w3.org/2000/svg" viewBox="0 0 1437.44 192.73"><defs><style>.cls-1{fill:#231f20;}</style></defs><g id="Layer_1-2"><path class="cls-1" d="m161.77,34.31l-66.38,146.71c-3.07,6.42-8.93,11.16-17.29,11.16-7.81,0-14.22-5.02-17.29-14.22L0,3.07h30.12l52.44,150.06L144.76,12.27c4.47-10.04,10.88-11.71,17.57-11.71,7.53,0,13.66,1.68,18.13,11.71l62.2,140.85L294.81,3.07h29.56l-61.08,174.88c-3.35,9.2-9.48,14.22-17.57,14.22s-13.94-4.46-17.01-11.16L161.77,34.31Z"/><path class="cls-1" d="m345.83,189.66V3.07h30.12v186.59h-30.12Z"/><path class="cls-1" d="m437.03,42.4v147.27h-27.33V19.53c0-13.39,7.81-18.97,16.74-18.97,3.9,0,8.37,1.12,13.11,5.86l149.78,143.36V3.07h27.61v169.3c0,13.38-8.09,18.97-17.01,18.97-3.91,0-8.09-.84-12.83-5.58L437.03,42.4Z"/><path class="cls-1" d="m649.26,189.66v-116.31h30.12v90.92h85.9c42.68,0,74.47-28.73,74.47-68.33s-32.08-67.22-74.47-67.22h-116.03l19.53-25.66h96.5c60.53,0,104.32,37.65,104.32,91.48s-44.35,95.11-104.32,95.11h-116.03Z"/><path class="cls-1" d="m1165.24,96.23c0,66.66-45.74,96.5-136.39,96.5s-136.39-29.84-136.39-96.5S937.92,0,1028.85,0s136.39,29.57,136.39,96.23Zm-57.46,0c0-40.17-20.92-47.69-78.93-47.69s-78.93,7.53-78.93,47.69,20.92,47.97,78.93,47.97,78.93-7.81,78.93-47.97Z"/><path class="cls-1" d="m1367.43,77.54c45.46,0,70.01,17.02,70.01,51.04,0,38.21-23.15,61.08-80.05,61.08h-173.76l37.1-47.97h141.13c13.66,0,19.8-3.9,19.8-13.66s-6.14-13.39-19.8-13.39h-101.53c-47.97,0-70.01-21.48-70.01-53.55,0-35.14,23.43-58.01,80.05-58.01h162.05l-37.1,48.53h-129.42c-13.39,0-19.8,3.35-19.8,12.83s6.41,13.11,19.8,13.11h101.53Z"/></g></svg>