<?xml version="1.0" encoding="UTF-8"?><svg id="Layer_2" xmlns="http://www.w3.org/2000/svg" viewBox="0 0 842.92 372.32"><defs><style>.cls-1{fill:none;stroke:#231f20;stroke-linecap:round;stroke-linejoin:round;stroke-width:14px;}.cls-2{fill:#231f20;}</style></defs><g id="Layer_1-2"><path class="cls-2" d="m309.69,0l-94.82,237.18-60.14-150.12-59.9,150.12L0,0h34.68l60.14,152.3,42.2-107.19.49-1.21L154.72,0v.24l17.46,43.65,42.68,108.4L275.01,0h34.68Z"/><path class="cls-2" d="m337.82,0h31.53v237.18h-31.53V0Z"/><path class="cls-2" d="m586.4,0v237.18l-158.12-160.79v160.79h-31.53V0l158.12,158.12V0h31.53Z"/><path class="cls-2" d="m704.02,0c32.66,0,60.54,11.56,83.67,34.68,23.12,23.28,34.68,51.25,34.68,83.91s-11.56,60.79-34.68,83.91-51.01,34.68-83.67,34.68h-87.06V0h87.06Zm0,205.65c23.92,0,44.38-8.49,61.36-25.46,16.98-16.98,25.46-37.51,25.46-61.6s-8.49-44.38-25.46-61.36c-16.98-16.98-37.43-25.46-61.36-25.46h-55.54v173.88h55.54Z"/><path class="cls-2" d="m349.72,248.67c17.02,0,31.61,6.03,43.74,18.08,12.05,12.14,18.08,26.72,18.08,43.74s-6.03,31.69-18.08,43.74c-12.14,12.05-26.72,18.08-43.74,18.08s-31.69-6.02-43.74-18.08c-12.05-12.05-18.08-26.63-18.08-43.74s6.02-31.61,18.08-43.74c12.05-12.05,26.63-18.08,43.74-18.08Zm0,107.21c12.47,0,23.13-4.42,31.98-13.27s13.27-19.55,13.27-32.11-4.42-23.13-13.27-31.98-19.51-13.27-31.98-13.27-23.26,4.42-32.11,13.27-13.27,19.51-13.27,31.98,4.42,23.26,13.27,32.11,19.55,13.27,32.11,13.27Z"/><path class="cls-2" d="m454.65,265.24c-4.55,0-8.43,1.6-11.63,4.8-3.29,3.2-4.93,7.08-4.93,11.63s1.64,8.43,4.93,11.63c3.2,3.2,7.08,4.8,11.63,4.8h28.7v-.13c10.28,0,19.05,3.62,26.3,10.87,7.25,7.25,10.87,16.01,10.87,26.3s-3.62,19.05-10.87,26.3-16.01,10.87-26.3,10.87h-61.69v-16.43h61.69c5.73,0,10.62-2.02,14.67-6.07s6.07-8.93,6.07-14.67-2.02-10.62-6.07-14.67-8.93-6.07-14.67-6.07v.25h-28.7c-9.1,0-16.9-3.24-23.39-9.73-6.41-6.4-9.61-14.16-9.61-23.26s3.2-16.86,9.61-23.26,14.29-9.73,23.39-9.73h65.87v16.56h-65.87Z"/><path class="cls-1" d="m539.58,256.74c98.97.09,196.97.09,296.35-.26"/><path class="cls-1" d="m18.51,256.48c84.03.35,169.03.35,253.07,0"/></g></svg>